<svg width="24" height="24" viewBox="0 0 24 24" fill="none" xmlns="http://www.w3.org/2000/svg">
<g clip-path="url(#clip0_1123_21505)">
<path d="M1.20957 2.07656L0.426758 3.72656L6.21582 3.74063C9.39863 3.74531 14.6018 3.74531 17.7846 3.74063L23.5736 3.72656L22.7908 2.07656L22.008 0.426563H12.0002H1.99238L1.20957 2.07656Z" fill="#EE7225"/>
<path d="M1.54688 13.4766V22.4531H2.55469H3.5625V15.3047V8.15625H3.35156C2.96719 8.15625 2.65313 7.96875 2.47969 7.63125C2.40469 7.48125 2.39063 7.35 2.39063 6.68906C2.39063 5.97656 2.4 5.90625 2.49844 5.71406C2.57344 5.57812 2.68594 5.46094 2.83594 5.36719L3.06094 5.22656H12H20.9391L21.1641 5.36719C21.3141 5.46094 21.4266 5.57812 21.5016 5.71406C21.6 5.90625 21.6094 5.97656 21.6094 6.68906C21.6094 7.35 21.5953 7.48125 21.5203 7.63125C21.3469 7.96875 21.0328 8.15625 20.6484 8.15625C20.4703 8.15625 20.4375 8.17031 20.4375 8.25C20.4375 8.33906 20.4703 8.34375 21.2719 8.34375C21.7266 8.34375 22.1813 8.3625 22.2797 8.38594L22.4531 8.42812V6.46406V4.5H12H1.54688V13.4766Z" fill="#EE7225"/>
<path d="M3.225 6.00459C3.15 6.04678 3.14062 6.13115 3.14062 6.67021C3.14062 7.09209 3.15938 7.3124 3.19688 7.3499C3.27656 7.42959 20.7234 7.42959 20.8031 7.3499C20.8406 7.3124 20.8594 7.09209 20.8594 6.67021C20.8594 6.10303 20.85 6.04678 20.7703 5.9999C20.6438 5.93428 3.3375 5.93428 3.225 6.00459Z" fill="#EE7225"/>
<path d="M7.19567 8.95316C6.96129 9.04223 6.90036 9.27191 7.02692 9.52035L7.13004 9.71254L6.98942 9.67973C6.83473 9.64691 6.59098 9.75004 6.54411 9.86723C6.49254 10.0032 6.51598 10.1579 6.60036 10.261C6.64254 10.3125 6.92379 10.4625 7.21911 10.5891C7.74879 10.8188 7.76286 10.8282 7.93161 11.0954C8.02536 11.2454 8.10504 11.3813 8.10504 11.4C8.10973 11.4235 7.95504 11.4375 7.76754 11.4375H7.42536L6.91911 11.0625C6.60504 10.8282 6.37067 10.6875 6.29567 10.6875C6.15504 10.6875 5.90661 10.9219 5.90661 11.0532C5.90661 11.1047 5.96286 11.2125 6.02848 11.2922L6.15036 11.4375H5.95348C5.69567 11.4375 5.46129 11.6532 5.50348 11.85C5.55036 12.0469 5.73786 12.1875 5.95817 12.1875H6.15036L6.02379 12.3375C5.93004 12.4454 5.90661 12.5157 5.93004 12.6047C5.96754 12.7641 6.16442 12.9375 6.30504 12.9375C6.37067 12.9375 6.62379 12.7829 6.91911 12.5625L7.42536 12.1875H7.76754C7.95504 12.1875 8.10973 12.2016 8.10504 12.2204C8.10504 12.2438 8.02536 12.3797 7.93161 12.5297C7.76286 12.7969 7.74879 12.8063 7.21911 13.036C6.92379 13.1625 6.64254 13.3125 6.60036 13.3641C6.38004 13.6266 6.64254 14.0204 6.98942 13.9454L7.13004 13.9125L7.02692 14.1047C6.87223 14.4047 7.00348 14.6719 7.30817 14.6719C7.50973 14.6719 7.54254 14.6485 7.68786 14.4422L7.79567 14.2829L7.84723 14.4422C7.97848 14.85 8.55973 14.7469 8.54567 14.3204C8.54098 14.2313 8.51286 13.936 8.48473 13.6688L8.42379 13.1813L8.60192 12.8672L8.77536 12.5485L8.95348 12.8719L9.12692 13.1954L9.06129 13.7672C9.01911 14.086 9.00504 14.3954 9.01911 14.461C9.03786 14.536 9.11286 14.611 9.21598 14.6579C9.36598 14.7329 9.39411 14.7329 9.50661 14.6672C9.57692 14.6297 9.66598 14.536 9.70348 14.4563L9.77848 14.3157L9.90504 14.4938C10.0691 14.7235 10.2894 14.7516 10.491 14.5641C10.6175 14.4469 10.6222 14.3016 10.5004 14.0625L10.4066 13.875L10.5285 13.9219C10.7769 14.0204 11.016 13.8563 11.016 13.5938C11.016 13.3594 10.9035 13.2704 10.2894 13.0125L9.77379 12.7969L9.60036 12.4922L9.42692 12.1875H9.77848C10.1254 12.1875 10.1394 12.1922 10.3972 12.3891C11.1519 12.9657 11.3066 13.0266 11.5082 12.8204C11.6535 12.6797 11.6582 12.4782 11.5269 12.3094L11.4332 12.1875H11.6254C11.766 12.1875 11.8457 12.1594 11.93 12.0704C12.1925 11.8125 12.0004 11.4375 11.6066 11.4375H11.3957L11.5082 11.3204C11.6629 11.1704 11.6629 10.9547 11.5082 10.8047C11.316 10.6079 11.18 10.6454 10.6222 11.0625L10.1207 11.4422L9.77848 11.4282L9.43161 11.4141L9.60036 11.1235L9.76911 10.8329L10.2847 10.6125C10.9175 10.3407 11.016 10.2657 11.016 10.0266C11.016 9.79223 10.8332 9.63754 10.6082 9.67035C10.4347 9.69848 10.4254 9.68441 10.5238 9.51566C10.6222 9.34223 10.6082 9.16879 10.491 9.06098C10.2613 8.85941 10.0644 8.89223 9.88161 9.15941L9.76911 9.32348L9.71754 9.18754C9.60504 8.89223 9.22536 8.8266 9.06129 9.07973C8.99098 9.18754 8.99098 9.24379 9.05661 9.81098L9.12692 10.4297L8.96754 10.7204C8.87848 10.8844 8.79411 11.0157 8.77536 11.0157C8.75661 11.0157 8.66754 10.8844 8.58317 10.7297L8.42379 10.4438L8.48473 9.95629C8.57379 9.19691 8.56911 9.14535 8.41911 9.01879C8.19411 8.82191 7.91286 8.91098 7.83786 9.2016L7.79567 9.3516L7.69254 9.17816C7.63161 9.07973 7.52848 8.98598 7.44411 8.95785C7.36442 8.92973 7.29879 8.90629 7.29411 8.91098C7.28942 8.91098 7.24723 8.92973 7.19567 8.95316Z" fill="#EE7225"/>
<path d="M14.8875 9.14043C14.7141 9.19668 14.4891 9.40293 14.4094 9.59512C14.3531 9.72168 14.3438 10.8467 14.3438 16.3498V22.9498L14.4516 23.1561C14.5078 23.2732 14.625 23.4139 14.7141 23.4701L14.8734 23.5779H18.5484C22.6219 23.5779 22.3734 23.5967 22.6266 23.2639L22.7578 23.0951L22.7719 16.4811C22.7766 12.8436 22.7719 9.79668 22.7578 9.71231C22.7203 9.50137 22.4391 9.20137 22.2281 9.14043C22.0125 9.08418 15.0844 9.08418 14.8875 9.14043ZM19.1016 10.5373C19.3219 10.6498 19.5469 10.8795 19.6687 11.1092C19.7531 11.2639 19.7578 11.4561 19.7719 14.5404L19.7859 17.8076L19.9453 17.9061C20.1656 18.042 20.5594 18.4873 20.6953 18.7451C21.0609 19.4764 21.0516 20.3201 20.6625 21.0561C20.4656 21.4311 20.0062 21.8529 19.5844 22.0545C18.2578 22.6873 16.6641 21.9607 16.2469 20.5357C16.1391 20.1748 16.1484 19.5373 16.2656 19.167C16.4156 18.6748 16.8094 18.1357 17.1937 17.9014L17.3437 17.8029V14.6295C17.3437 11.1045 17.3344 11.2076 17.6578 10.8326C17.8172 10.6451 17.9953 10.5279 18.2344 10.4482C18.4266 10.3826 18.9 10.4342 19.1016 10.5373Z" fill="#EE7225"/>
<path d="M18.3048 16.9449C18.1876 17.0574 18.1876 17.0621 18.1876 18.009V18.9606L18.0235 19.0637C17.7938 19.2137 17.6298 19.4903 17.5923 19.7668C17.5079 20.5121 18.2813 21.084 18.961 20.7699C19.5798 20.484 19.7345 19.7199 19.2845 19.2184C19.1907 19.1153 19.0782 19.0215 19.0267 19.0074C18.9423 18.9793 18.9376 18.9231 18.9376 18.0184C18.9376 17.0621 18.9376 17.0574 18.8204 16.9449C18.7501 16.8699 18.6517 16.8278 18.5626 16.8278C18.4735 16.8278 18.3751 16.8699 18.3048 16.9449Z" fill="#EE7225"/>
<path d="M5.40469 16.3125C5.34844 16.3359 5.28281 16.3969 5.25469 16.4484C5.21719 16.5094 5.20312 17.4656 5.20312 19.3969V22.2516L5.31094 22.35L5.41875 22.4531H8.77969C12.0656 22.4531 12.1406 22.4531 12.2344 22.3594C12.2859 22.3078 12.3375 22.2187 12.3516 22.1625C12.3656 22.1016 12.3703 20.8031 12.3656 19.275L12.3516 16.4906L12.2203 16.3781C12.0891 16.2656 12.0844 16.2656 11.0109 16.2656H9.9375V17.0859C9.9375 17.8078 9.92812 17.9062 9.85781 17.9484C9.75 18.0047 9.675 17.9625 9.22969 17.5922C9.03281 17.4328 8.82656 17.2969 8.77969 17.2969C8.72812 17.2969 8.49375 17.4562 8.25469 17.6484C7.63594 18.15 7.59375 18.1125 7.59375 17.0203V16.2656L6.55312 16.2703C5.97656 16.2703 5.46094 16.2891 5.40469 16.3125ZM8.0625 20.8125V21.2812L7.23281 21.2719L6.39844 21.2578L6.38437 20.8641C6.375 20.6484 6.37969 20.4422 6.39375 20.4047C6.4125 20.3578 6.6 20.3438 7.24219 20.3438H8.0625V20.8125Z" fill="#EE7225"/>
</g>
<defs>
<clipPath id="clip0_1123_21505">
<rect width="24" height="24" fill="white"/>
</clipPath>
</defs>
</svg>
