<svg width="24" height="24" viewBox="0 0 24 24" fill="none" xmlns="http://www.w3.org/2000/svg">
<mask id="mask0_1123_21472" style="mask-type:luminance" maskUnits="userSpaceOnUse" x="1" y="1" width="22" height="22">
<path d="M12 22C17.523 22 22 17.523 22 12C22 6.477 17.523 2 12 2C6.477 2 2 6.477 2 12C2 17.523 6.477 22 12 22Z" fill="white" stroke="white" stroke-width="2" stroke-linejoin="round"/>
<path d="M12.0039 6V12.005L16.2434 16.245" stroke="black" stroke-width="2" stroke-linecap="round" stroke-linejoin="round"/>
</mask>
<g mask="url(#mask0_1123_21472)">
</g>
<path d="M12 3C13.0609 3 14.0783 3.42143 14.8284 4.17157C15.5786 4.92172 16 5.93913 16 7C16 7.73 15.81 8.41 15.46 9H18C18.95 9 19.75 9.67 19.95 10.56C21.96 18.57 22 18.78 22 19C22 19.5304 21.7893 20.0391 21.4142 20.4142C21.0391 20.7893 20.5304 21 20 21H4C3.46957 21 2.96086 20.7893 2.58579 20.4142C2.21071 20.0391 2 19.5304 2 19C2 18.78 2.04 18.57 4.05 10.56C4.25 9.67 5.05 9 6 9H8.54C8.18299 8.3942 7.99641 7.70316 8 7C8 5.93913 8.42143 4.92172 9.17157 4.17157C9.92172 3.42143 10.9391 3 12 3ZM12 5C11.4696 5 10.9609 5.21071 10.5858 5.58579C10.2107 5.96086 10 6.46957 10 7C10 7.53043 10.2107 8.03914 10.5858 8.41421C10.9609 8.78929 11.4696 9 12 9C12.5304 9 13.0391 8.78929 13.4142 8.41421C13.7893 8.03914 14 7.53043 14 7C14 6.46957 13.7893 5.96086 13.4142 5.58579C13.0391 5.21071 12.5304 5 12 5ZM6 11V19H8V16.5L9 17.5V19H11V17L9 15L11 13V11H9V12.5L8 13.5V11H6ZM15 11C13.89 11 13 11.89 13 13V17C13 18.11 13.89 19 15 19H18V14H16V17H15V13H18V11H15Z" fill="#EE7225"/>
</svg>
