<svg width="24" height="24" viewBox="0 0 24 24" fill="none" xmlns="http://www.w3.org/2000/svg">
<g clip-path="url(#clip0_1123_21435)">
<path d="M11.4374 0.562744C11.5664 0.652042 11.6117 0.716758 11.6689 0.861572C11.6729 1.03244 11.6213 1.12158 11.5312 1.26587C11.4541 1.34503 11.3758 1.42304 11.2968 1.50024C10.5647 2.34247 10.5604 3.44289 10.5468 4.50024C10.6007 4.49928 10.6007 4.49928 10.6557 4.49829C10.9469 4.49528 11.2242 4.50395 11.5107 4.55591C11.5461 4.56218 11.5815 4.56845 11.6181 4.57492C13.574 4.93616 15.2 5.90374 16.3425 7.5465C16.8206 8.25535 17.137 9.04124 17.3583 9.8645C17.3745 9.92379 17.3745 9.92379 17.391 9.98427C17.5906 10.7727 17.6511 11.5707 17.6454 12.3811C17.6452 12.4465 17.6452 12.4465 17.645 12.5132C17.6415 13.2469 17.5916 13.9528 17.4374 14.6721C17.4223 14.7435 17.4223 14.7435 17.407 14.8162C16.8337 17.4528 15.4601 20.0628 13.3124 21.7502C13.2423 21.8067 13.2423 21.8067 13.1707 21.8643C11.9454 22.8409 10.4836 23.529 8.95304 23.8596C8.91986 23.8672 8.88668 23.8748 8.85249 23.8827C7.76579 24.1229 6.36137 24.1579 5.29679 23.8127C5.25091 23.7981 5.25091 23.7981 5.20411 23.7831C4.55008 23.5625 4.05732 23.1362 3.70304 22.5471C3.39057 21.8923 3.34418 21.2149 3.5626 20.5231C3.65447 20.2751 3.76161 20.0363 3.87647 19.7983C4.034 19.4712 4.1563 19.1566 4.21866 18.7971C4.22585 18.7558 4.23304 18.7145 4.24045 18.6719C4.38949 17.4863 3.95095 16.2798 3.62538 15.1578C3.43539 14.5015 3.26992 13.8434 3.14054 13.1721C3.13227 13.131 3.124 13.09 3.11548 13.0476C2.99723 12.4409 2.98571 11.8341 2.98234 11.218C2.98196 11.1798 2.98158 11.1416 2.98119 11.1022C2.9748 10.247 3.09771 9.43499 3.37491 8.62525C3.38524 8.59505 3.39556 8.56485 3.4062 8.53374C3.64009 7.86757 3.99343 7.28503 4.45304 6.75025C4.47884 6.71822 4.50464 6.68619 4.53122 6.6532C5.60802 5.34877 7.45391 4.71419 9.08284 4.53265C9.3051 4.51364 9.52689 4.50362 9.74991 4.50024C9.74881 4.44437 9.74881 4.44437 9.74768 4.38736C9.72384 2.99772 9.85251 1.81518 10.8273 0.750061C11.0155 0.563646 11.1787 0.520501 11.4374 0.562744ZM11.9296 7.62329C11.8379 7.76844 11.8312 7.84705 11.8593 8.01587C11.9969 8.18654 12.1316 8.24556 12.3368 8.3147C12.6155 8.41704 12.8456 8.53467 13.078 8.719C13.1063 8.74135 13.1345 8.76371 13.1635 8.78675C13.7895 9.34658 13.9951 10.2067 14.0571 11.008C14.0673 11.2032 14.0601 11.3976 14.0474 11.5925C14.0675 11.7616 14.13 11.8352 14.2499 11.9534C14.414 11.9885 14.414 11.9885 14.578 11.9534C14.7153 11.8508 14.7601 11.7905 14.7974 11.6218C14.8573 10.5128 14.6238 9.36286 13.8813 8.49872C13.4613 8.04648 12.8793 7.58343 12.2372 7.53247C12.0955 7.53482 12.0528 7.54324 11.9296 7.62329Z" fill="#EE7225"/>
<path d="M15.5625 5.625C16.7473 5.98183 17.6342 7.16951 18.1963 8.20898C18.603 8.99046 18.8614 9.82528 19.0312 10.6875C19.0384 10.7238 19.0456 10.7601 19.053 10.7974C19.2845 12.0184 19.2772 13.2747 19.2663 14.5124C19.2629 14.9303 19.2638 15.3468 19.2852 15.7643C19.287 15.7991 19.2887 15.8339 19.2905 15.8698C19.3272 16.4992 19.4436 17.0891 19.6875 17.6719C19.7031 17.7115 19.7188 17.751 19.7349 17.7918C19.8673 18.0914 20.0664 18.3268 20.2724 18.5778C20.8736 19.3164 21.0904 20.0558 21 21C20.8863 21.5989 20.5289 22.1624 20.0391 22.5234C19.5229 22.867 18.975 23.101 18.375 23.25C18.3378 23.2593 18.3006 23.2685 18.2622 23.2781C16.5692 23.6777 14.7164 23.4599 13.125 22.7813C13.3069 22.5913 13.502 22.4287 13.708 22.2656C14.2056 21.8661 14.6883 21.4479 15.0938 20.9531C15.128 20.9136 15.1623 20.8741 15.1976 20.8334C17.3207 18.3581 18.5395 14.847 18.3047 11.59C18.2312 10.752 18.0776 9.93903 17.8125 9.14063C17.8013 9.1067 17.79 9.07278 17.7784 9.03783C17.3589 7.79864 16.6698 6.75066 15.7339 5.84258C15.6761 5.78641 15.6192 5.72924 15.5625 5.67188C15.5625 5.65641 15.5625 5.64094 15.5625 5.625Z" fill="#EE7225"/>
<path d="M20.0157 0.937418C20.0861 1.06632 20.0861 1.06632 20.1095 1.21867C20.0248 1.46029 19.9096 1.64146 19.7403 1.8339C19.7066 1.87282 19.7066 1.87282 19.6722 1.91252C19.2218 2.4252 18.7391 2.87905 18.1876 3.28117C18.1607 3.30103 18.1338 3.3209 18.1061 3.34136C16.8657 4.24669 15.4329 4.67104 13.898 4.47831C13.73 4.44744 13.57 4.40812 13.4064 4.35929C13.3754 4.35023 13.3444 4.34117 13.3125 4.33183C12.6485 4.13277 12.0182 3.82146 11.4845 3.37492C11.409 3.22398 11.4167 3.06992 11.4376 2.90617C11.4938 2.78605 11.5446 2.69342 11.6193 2.58683C11.638 2.55886 11.6568 2.53089 11.6762 2.50207C12.1914 1.7544 12.8964 1.09703 13.6876 0.656168C13.7335 0.630608 13.7793 0.605049 13.8266 0.578714C14.1878 0.388162 14.562 0.254051 14.9532 0.140543C15.0033 0.125437 15.0533 0.110331 15.1049 0.0947666C16.6123 -0.283874 18.717 0.048153 20.0157 0.937418Z" fill="#EE7225"/>
</g>
<defs>
<clipPath id="clip0_1123_21435">
<rect width="24" height="24" fill="white"/>
</clipPath>
</defs>
</svg>
