<svg width="24" height="24" viewBox="0 0 24 24" fill="none" xmlns="http://www.w3.org/2000/svg">
<g clip-path="url(#clip0_1123_21599)">
<path d="M2.98213 1.74844L1.15869 3.49219L4.06025 3.50625L6.96182 3.51562L8.71963 1.75781L10.4774 -2.38419e-07L7.6415 0.00468731H4.80557L2.98213 1.74844Z" fill="#EE7225"/>
<path d="M9.89111 1.75781L8.1333 3.51562H9.8208H11.5083L13.2661 1.75781L15.0239 -2.38419e-07H13.3364H11.6489L9.89111 1.75781Z" fill="#EE7225"/>
<path d="M14.3911 1.75781L12.6333 3.51562H15.4692H18.3052L20.063 1.75781L21.8208 -2.38419e-07H18.9849H16.1489L14.3911 1.75781Z" fill="#EE7225"/>
<path d="M20.6114 2.33437L18.8911 4.05469L18.9005 8.64844L18.9146 13.2422L19.2427 13.2797C20.1802 13.3828 21.2958 13.8562 22.0692 14.4797L22.3599 14.7188V7.66406C22.3599 3.78281 22.3552 0.609374 22.3458 0.609374C22.3411 0.609374 21.563 1.38281 20.6114 2.33437Z" fill="#EE7225"/>
<path d="M0.562988 13.0781V21.8438H6.98486H13.4067L13.313 21.6609C12.6849 20.4234 12.5208 18.9234 12.863 17.5687C13.3317 15.7359 14.7474 14.1937 16.5474 13.5562C16.9411 13.4203 17.5364 13.2797 17.8599 13.2562L18.0239 13.2422L18.038 8.775L18.0474 4.3125H15.0708H12.0942L12.0849 7.22344L12.0708 10.1344L11.9349 10.2516C11.8271 10.3406 11.7614 10.3641 11.6442 10.3453C11.5599 10.3312 11.0771 10.0406 10.5005 9.65625C9.95674 9.29062 9.4833 8.98594 9.4458 8.97187C9.41299 8.95781 8.90674 9.26719 8.32549 9.65156C7.70205 10.0687 7.21455 10.3594 7.14893 10.3594C7.08799 10.3594 6.97549 10.3031 6.8958 10.2375L6.75049 10.1156V7.21406V4.3125H3.65674H0.562988V13.0781ZM6.3333 17.6672C6.50674 17.8453 6.51143 18.0375 6.34736 18.2062L6.2208 18.3281H4.19111H2.16143L2.03486 18.2156C1.93643 18.1312 1.90361 18.0656 1.90361 17.9297C1.90361 17.7937 1.93643 17.7281 2.03486 17.6437L2.16143 17.5312H4.17705H6.19736L6.3333 17.6672ZM4.71143 19.8047C4.88955 19.9781 4.88486 20.2172 4.70674 20.3766C4.58955 20.4844 4.56611 20.4844 3.37549 20.4844C2.16611 20.4844 2.16143 20.4844 2.03486 20.3719C1.93643 20.2875 1.90361 20.2219 1.90361 20.0859C1.90361 19.95 1.93643 19.8844 2.03486 19.8C2.16143 19.6875 2.16611 19.6875 3.38018 19.6875H4.59893L4.71143 19.8047Z" fill="#EE7225"/>
<path d="M15.2153 17.4967L17.1299 15.5821L20.576 15.1992C21.0866 15.7098 22.1076 16.8074 22.1076 17.1137V19.7941L20.1931 22.0915L17.5128 22.4744L15.9811 21.3257L15.2153 19.4112V17.4967Z" fill="white"/>
<path d="M7.54736 6.7541V9.19629L7.67861 9.11191C7.74893 9.06973 8.13799 8.80723 8.5458 8.54004C9.06611 8.18848 9.32393 8.04785 9.42236 8.04785C9.5208 8.04785 9.79736 8.20254 10.3833 8.5916C10.8333 8.8916 11.213 9.14004 11.2271 9.14004C11.2411 9.14004 11.2505 8.05254 11.2505 6.72598V4.31191H9.39893H7.54736V6.7541Z" fill="#EE7225"/>
<path d="M17.8272 14.0621C14.3631 14.5496 12.4506 18.2855 14.0819 21.3559C14.7288 22.5746 15.8866 23.484 17.2459 23.8496C17.6444 23.9527 17.785 23.9668 18.4694 23.9668C19.1538 23.9668 19.2944 23.9527 19.6975 23.8449C21.6288 23.3293 23.0819 21.7449 23.3913 19.8137C23.4756 19.298 23.4288 18.2246 23.2975 17.7418C23.1709 17.259 22.7631 16.4199 22.4631 16.0309C22.1303 15.5855 21.4928 15.009 21.0522 14.7465C20.6116 14.484 19.9834 14.2355 19.4913 14.1277C19.0694 14.0434 18.2163 14.0059 17.8272 14.0621ZM17.6116 17.3996L18.4694 18.2574L19.3272 17.3996C19.8803 16.8465 20.2319 16.5324 20.3209 16.509C20.6584 16.4152 21.0006 16.6777 21.0006 17.0293C21.0006 17.2168 20.9772 17.2449 20.1334 18.0934C19.6553 18.5715 19.2663 18.984 19.2663 19.0074C19.2663 19.0309 19.6553 19.4434 20.1334 19.9215C20.9678 20.7605 21.0006 20.8027 21.0006 20.9809C21.0006 21.3652 20.6444 21.6371 20.3069 21.5105C20.2366 21.4871 19.7959 21.0793 19.3272 20.6105L18.4694 19.7574L17.6163 20.6105C17.1428 21.0793 16.6975 21.4871 16.6225 21.5152C16.4397 21.5809 16.21 21.5059 16.0553 21.323C15.9241 21.1637 15.9053 20.9668 16.0038 20.7746C16.0413 20.7043 16.4444 20.2777 16.8944 19.8277L17.7194 19.0074L16.8428 18.1309L15.9616 17.2496V17.0199C15.9616 16.7527 16.0928 16.5699 16.3319 16.5043C16.6084 16.434 16.7256 16.5137 17.6116 17.3996Z" fill="#EE7225"/>
</g>
<defs>
<clipPath id="clip0_1123_21599">
<rect width="24" height="24" fill="white"/>
</clipPath>
</defs>
</svg>
