<svg width="70" height="70" viewBox="0 0 70 70" fill="none" xmlns="http://www.w3.org/2000/svg">
<rect x="0.669556" y="0.763916" width="68.5548" height="68.5548" rx="9.79354" fill="#FFEED4"/>
<path d="M29.3338 22.5346C24.4189 23.6296 22.2543 24.1389 22.3562 24.1644C22.4071 24.1771 24.699 24.5082 27.4239 24.9156L32.3897 25.6287L36.6298 24.6355C39.3546 23.9988 40.7935 23.6041 40.6407 23.5405C40.5133 23.4895 38.3233 23.2221 35.7639 22.9293C33.2046 22.6364 30.9509 22.3818 30.7344 22.3563C30.5307 22.3308 29.8941 22.4072 29.3338 22.5346Z" fill="#EE9C1F"/>
<path d="M40.4751 24.7247C39.0363 25.0685 36.7571 25.616 35.4202 25.9343L32.9627 26.52V28.2772V30.0343L33.5357 30.1107C33.9049 30.1744 34.1596 30.289 34.236 30.4418C34.2997 30.5691 34.3633 31.6005 34.3633 32.721C34.3633 33.8542 34.4015 34.771 34.4397 34.771C34.4779 34.771 34.7581 34.7073 35.0764 34.6309L35.6366 34.4909V32.0334C35.6366 29.9961 35.6748 29.5505 35.8276 29.4232C35.9422 29.334 37.6994 28.8502 39.7494 28.3536L43.4674 27.4495L43.5056 25.7561C43.5311 24.2154 43.5183 24.0753 43.3146 24.088C43.1873 24.088 41.914 24.3809 40.4751 24.7247Z" fill="#EE9C1F"/>
<path d="M19.9751 26.6602V28.5065L20.408 28.3919C20.8409 28.2773 21.3757 28.341 30.0341 29.6143C30.7726 29.7161 31.4984 29.8307 31.6639 29.8689C31.9441 29.9326 31.9441 29.9326 31.9441 28.2391V26.5456L26.3798 25.7435C23.3111 25.2978 20.6117 24.9031 20.3953 24.8776L19.9751 24.8012V26.6602Z" fill="#EE9C1F"/>
<path d="M42.9326 28.5703C40.6025 29.1433 38.718 29.6144 38.7307 29.6272C38.7434 29.6399 41.0863 30.0346 43.9258 30.5057L49.1081 31.3716L53.5391 30.1874C57.6391 29.1051 58.314 28.9141 57.9575 28.9141C57.8938 28.9141 55.6783 28.5958 53.0298 28.2138C50.3941 27.8318 48.0003 27.5135 47.6947 27.5262C47.4019 27.539 45.2627 28.0101 42.9326 28.5703Z" fill="#EE9C1F"/>
<path d="M16.4735 30.3272C14.2325 30.8874 12.3099 31.3713 12.208 31.4095C12.1061 31.4477 14.3344 31.8806 17.1739 32.3517L22.318 33.2048L26.6854 32.0589C29.0919 31.4222 31.0528 30.8747 31.0528 30.8238C31.0528 30.7474 21.0701 29.2704 20.7391 29.3086C20.6372 29.3213 18.7145 29.7797 16.4735 30.3272Z" fill="#EE9C1F"/>
<path d="M54.9526 30.8238C52.3805 31.5114 50.1268 32.1098 49.9485 32.148L49.6302 32.2371L49.6684 33.8415L49.7066 35.4586L50.6106 35.5986C51.1199 35.675 51.6165 35.8151 51.7311 35.9042C51.9094 36.057 51.9349 36.7319 51.9603 41.6977L51.9985 47.3257L56.0349 45.4667L60.0839 43.6204V36.5791C60.0839 29.9707 60.0712 29.5505 59.8675 29.5632C59.7402 29.576 57.5246 30.1362 54.9526 30.8238Z" fill="#EE9C1F"/>
<path d="M36.6553 32.25V34.2109L37.5975 34.0199C38.5398 33.8289 38.5652 33.8289 43.2382 34.5037C45.8103 34.873 48.0767 35.2168 48.2805 35.2422L48.6242 35.3059V33.8034V32.2882L42.9963 31.346C39.8894 30.8366 37.2028 30.391 37.0118 30.3528L36.6553 30.2764V32.25Z" fill="#EE9C1F"/>
<path d="M27.9969 32.721L22.84 34.0834L22.8018 41.2393C22.7891 45.1738 22.8146 48.3953 22.8655 48.3825C22.9292 48.3825 23.7441 48.026 24.6863 47.5804L26.4053 46.7782L26.4435 41.7869L26.4689 36.7955L26.7618 36.681C26.9146 36.6173 28.2515 36.2735 29.7158 35.917C31.1928 35.5605 32.6062 35.2167 32.8736 35.1403L33.3447 35.0129V33.1794C33.3447 32.1608 33.3065 31.3331 33.2556 31.3458C33.1919 31.3458 30.8363 31.9698 27.9969 32.721Z" fill="#EE9C1F"/>
<path d="M9.91608 38.9603C9.91608 44.9829 9.94154 45.7087 10.1198 45.7724C10.3745 45.8743 21.6049 48.5227 21.7705 48.5227C21.8341 48.5227 21.8851 45.6069 21.8851 41.3413V34.1599L21.5413 34.0835C20.65 33.9053 10.4127 32.2245 10.1707 32.2245C9.91608 32.2245 9.91608 32.2627 9.91608 38.9603ZM20.0897 46.2817C20.6627 46.4727 20.8664 46.791 20.5863 47.0711C20.3953 47.2621 20.2807 47.2749 19.6441 47.1475C18.8291 46.982 18.5745 46.8165 18.5745 46.4727C18.5745 45.9888 19.0329 45.9379 20.0897 46.2817Z" fill="#EE9C1F"/>
<path d="M33.9177 35.9169C31.473 36.5281 29.5248 37.0374 29.5885 37.0502C29.6649 37.0502 32.0078 37.4449 34.7963 37.9033L39.8767 38.7437L44.3715 37.5595C46.8416 36.9101 48.8535 36.3626 48.8407 36.3499C48.828 36.3371 46.6125 36.0061 43.9131 35.6113C41.2137 35.2166 38.8708 34.8728 38.6926 34.8474C38.5143 34.8219 36.3752 35.293 33.9177 35.9169Z" fill="#EE9C1F"/>
<path d="M45.6321 38.2472C42.7671 38.9985 40.4116 39.6351 40.3861 39.6606C40.3606 39.6733 40.3606 42.9075 40.3734 46.8293L40.4116 53.9597L45.6193 51.5659C48.4715 50.2544 50.8398 49.1467 50.8653 49.1212C50.8908 49.0957 50.9035 46.3199 50.8908 42.9712L50.8526 36.8721L45.6321 38.2472Z" fill="#EE9C1F"/>
<path d="M27.4875 44.4354C27.4875 49.4012 27.5257 51.2093 27.6403 51.2729C27.9077 51.4385 39.2655 54.0869 39.3674 53.9978C39.4183 53.9596 39.4438 50.7127 39.4311 46.7909L39.3929 39.6732L33.9814 38.7565C31.0018 38.2599 28.3279 37.8142 28.0351 37.7633L27.4875 37.6869V44.4354ZM37.2665 51.5913C37.9795 51.7695 38.1832 51.9096 38.1832 52.2279C38.1832 52.6226 37.7885 52.7245 37.0245 52.5462C36.6298 52.4571 36.2478 52.3425 36.1714 52.2916C35.8404 52.0879 36.095 51.4512 36.5025 51.4512C36.5916 51.4512 36.9354 51.5149 37.2665 51.5913Z" fill="#EE9C1F"/>
</svg>
